<svg xmlns="http://www.w3.org/2000/svg" version="1.1" xmlns:xlink="http://www.w3.org/1999/xlink" xmlns:svgjs="http://svgjs.dev/svgjs" width="1000" height="1000" viewBox="0 0 1000 1000"><rect width="1000" height="1000" fill="#000000"></rect><g transform="matrix(0.7,0,0,0.7,149.57576628070416,282.1265587044535)"><svg viewBox="0 0 396 247" data-background-color="#ffffff" preserveAspectRatio="xMidYMid meet" height="623" width="1000" xmlns="http://www.w3.org/2000/svg" xmlns:xlink="http://www.w3.org/1999/xlink"><g id="tight-bounds" transform="matrix(1,0,0,1,0.2399954518806453,-0.09999999999999432)"><svg viewBox="0 0 395.52 247.2" height="247.2" width="395.52"><g><svg></svg></g><g><svg viewBox="0 0 395.52 247.2" height="247.2" width="395.52"><g><g><path xmlns="http://www.w3.org/2000/svg" d="M270.52 243.148v-3.685h1.842c1.719 0 3.316-0.737 4.789-2.21 1.474-1.474 2.775-3.193 3.905-5.158 1.081-1.965 1.867-4.126 2.358-6.484 0.491-2.309 0.737-4.445 0.737-6.41l0-3.705 24.683 0v3.705c0 1.965 0.246 4.102 0.737 6.41 0.491 2.358 1.277 4.519 2.358 6.484 1.13 1.965 2.431 3.684 3.905 5.158 1.474 1.474 3.193 2.21 5.158 2.21h1.842v3.685zM284.151 25.42l-2.693 6.284-13.701 0 13.447-31.704h41.63v3.684h-1.842c-1.965 0-3.684 0.663-5.158 1.989-1.474 1.375-2.775 3.045-3.905 5.011-1.081 1.965-1.867 4.052-2.358 6.263-0.491 2.21-0.737 4.175-0.737 5.894v8.863l-24.683 0zM189.102 247.2l-13.603-31.704 27.191 0zM98.843 219.201c0 1.965 0.246 4.102 0.737 6.41 0.491 2.358 1.302 4.519 2.431 6.484 1.081 1.965 2.358 3.684 3.832 5.158 1.474 1.474 3.193 2.21 5.158 2.21h1.842v3.685h-40.157v-3.685h1.842c1.719 0 3.316-0.737 4.79-2.21 1.474-1.474 2.702-3.193 3.684-5.158 0.982-1.965 1.719-4.126 2.21-6.484 0.491-2.309 0.737-4.445 0.737-6.41v-3.705l12.894 0zM85.949 22.841c0-1.719-0.246-3.684-0.737-5.894-0.491-2.21-1.228-4.298-2.21-6.263-0.982-1.965-2.21-3.635-3.684-5.011-1.474-1.326-3.07-1.989-4.79-1.989h-1.842v-3.684h37.578l13.447 31.704-37.762 0z" fill="#636365" fill-rule="nonzero" stroke="none" stroke-width="1" stroke-linecap="butt" stroke-linejoin="miter" stroke-miterlimit="10" stroke-dasharray="" stroke-dashoffset="0" font-family="none" font-weight="none" font-size="none" text-anchor="none" style="mix-blend-mode: normal" data-fill-palette-color="tertiary"></path></g></g><g transform="matrix(1,0,0,1,0,51.925966997989846)"><svg viewBox="0 0 395.52 143.3480660040203" height="143.3480660040203" width="395.52"><g><svg viewBox="0 0 674.432997346131 244.43432903231803" height="143.3480660040203" width="395.52"><g transform="matrix(1,0,0,1,278.91299734613096,49.18636649744687)"><svg viewBox="0 0 395.52 146.0615960374243" height="146.0615960374243" width="395.52"><g id="textblocktransform"><svg viewBox="0 0 395.52 146.0615960374243" height="146.0615960374243" width="395.52" id="textblock"><g><svg viewBox="0 0 395.52 146.0615960374243" height="146.0615960374243" width="395.52"><g transform="matrix(1,0,0,1,0,0)"><svg width="395.52" viewBox="2.299999952316284 -33 90.83999633789062 33.54999923706055" height="146.0615960374243" data-palette-color="#636365"><path d="M29.15 0L29.15-0.5 29.4-0.5Q29.75-0.5 30.05-0.8 30.35-1.1 30.58-1.5 30.8-1.9 30.9-2.38 31-2.85 31-3.25L31-3.25 31-29.55 18.1 0.55 5.85-28 5.85-3.25Q5.85-2.85 5.95-2.38 6.05-1.9 6.28-1.5 6.5-1.1 6.8-0.8 7.1-0.5 7.5-0.5L7.5-0.5 7.75-0.5 7.75 0 2.3 0 2.3-0.5 2.55-0.5Q2.9-0.5 3.2-0.8 3.5-1.1 3.7-1.5 3.9-1.9 4-2.38 4.1-2.85 4.1-3.25L4.1-3.25 4.1-29.9Q4.1-30.25 4-30.7 3.9-31.15 3.7-31.55 3.5-31.95 3.2-32.23 2.9-32.5 2.55-32.5L2.55-32.5 2.3-32.5 2.3-33 7.4-33 19-5.65 30.6-33 36.25-33 36.25-32.5 36-32.5Q35.6-32.5 35.3-32.23 35-31.95 34.77-31.55 34.55-31.15 34.45-30.7 34.35-30.25 34.35-29.9L34.35-29.9 34.35-3.25Q34.35-2.85 34.45-2.38 34.55-1.9 34.77-1.5 35-1.1 35.3-0.8 35.6-0.5 36-0.5L36-0.5 36.25-0.5 36.25 0 29.15 0ZM47.9-0.5L47.9-0.5 48.15-0.5 48.15 0 41.1 0 41.1-0.5 41.35-0.5Q41.7-0.5 42-0.8 42.3-1.1 42.52-1.5 42.75-1.9 42.85-2.38 42.95-2.85 42.95-3.25L42.95-3.25 42.95-29.9Q42.95-30.25 42.85-30.7 42.75-31.15 42.52-31.55 42.3-31.95 42-32.23 41.7-32.5 41.35-32.5L41.35-32.5 41.1-32.5 41.1-33 49.8-33Q54.8-33 57.52-31.05 60.25-29.1 60.25-25.3L60.25-25.3Q60.25-23.4 59.62-21.98 59-20.55 57.95-19.53 56.9-18.5 55.47-17.88 54.05-17.25 52.45-16.95L52.45-16.95 56.05-11.45Q57.35-9.45 58.7-7.53 60.05-5.6 61.35-3.55L61.35-3.55Q61.7-3.05 62.12-2.5 62.55-1.95 63.02-1.5 63.5-1.05 64.02-0.78 64.55-0.5 65.1-0.5L65.1-0.5 65.1 0 62.95 0Q60.95 0 59.67-0.98 58.4-1.95 57.55-3.25L57.55-3.25Q55.3-6.55 53.07-9.95 50.85-13.35 48.65-16.65L48.65-16.65Q48.1-16.7 47.47-16.78 46.85-16.85 46.3-16.95L46.3-16.95 46.3-3.25Q46.3-2.85 46.4-2.38 46.5-1.9 46.72-1.5 46.95-1.1 47.22-0.8 47.5-0.5 47.9-0.5ZM47.05-31.3L46.3-31.3 46.3-18.6 46.55-18.6Q46.95-18.55 47.82-18.53 48.7-18.5 50-18.5L50-18.5Q51.05-18.5 52.22-18.82 53.4-19.15 54.42-19.93 55.45-20.7 56.12-21.95 56.8-23.2 56.8-25.1L56.8-25.1Q56.8-27 56.07-28.2 55.35-29.4 54.07-30.1 52.8-30.8 51-31.05 49.2-31.3 47.05-31.3L47.05-31.3ZM75-0.5L75-0.5 75.25-0.5 75.25 0 68.09 0 68.09-0.5 68.34-0.5Q68.75-0.5 69.05-0.8 69.34-1.1 69.57-1.5 69.8-1.9 69.89-2.38 70-2.85 70-3.25L70-3.25 70-29.9Q70-30.25 69.89-30.7 69.8-31.15 69.57-31.55 69.34-31.95 69.05-32.23 68.75-32.5 68.39-32.5L68.39-32.5 68.14-32.5 68.14-33 75.3-33 75.3-32.5 75.05-32.5Q74.64-32.5 74.34-32.23 74.05-31.95 73.82-31.55 73.59-31.15 73.47-30.7 73.34-30.25 73.34-29.9L73.34-29.9 73.34-18.3 86.05-30.9Q86.34-31.25 86.34-31.7L86.34-31.7Q86.34-32.5 85.75-32.5L85.75-32.5 85.5-32.5 85.5-33 91.59-33 91.59-32.5 91.34-32.5Q90.64-32.5 89.89-32 89.14-31.5 88.39-30.75L88.39-30.75 77.89-20.3 88.94-3.55Q89-3.45 89.39-2.95 89.8-2.45 90.37-1.9 90.94-1.35 91.67-0.93 92.39-0.5 93.14-0.5L93.14-0.5 93.14 0 91.94 0Q90.44 0 89.42-0.18 88.39-0.35 87.64-0.75 86.89-1.15 86.32-1.75 85.75-2.35 85.14-3.25L85.14-3.25 75.44-17.9 73.34-15.75 73.34-3.25Q73.34-2.85 73.47-2.4 73.59-1.95 73.8-1.53 74-1.1 74.3-0.8 74.59-0.5 75-0.5Z" opacity="1" transform="matrix(1,0,0,1,0,0)" fill="#ffffff" class="undefined-text-0" data-fill-palette-color="primary" id="text-0"></path></svg></g></svg></g></svg></g></svg></g><g><svg viewBox="0 0 244.43135999999998 244.43432903231803" height="244.43432903231803" width="244.43135999999998"><g><svg xmlns="http://www.w3.org/2000/svg" xmlns:xlink="http://www.w3.org/1999/xlink" version="1.1" x="0" y="0" viewBox="5.412825107574463 5.195577621459961 79.76930236816406 79.77027130126953" enable-background="new 0 0 90 90" xml:space="preserve" height="244.43432903231803" width="244.43135999999998" class="icon-icon-0" data-fill-palette-color="accent" id="icon-0"><path d="M54.624 83.27c-10.792 1.801-22.246-1.411-30.727-8.272-8.062-6.522-13.088-16.744-12.728-27.17 0.349-10.096 5.499-20.182 14.078-25.707 8.769-5.647 20.783-5.62 29.498 0.129 8.154 5.379 12.661 15.857 9.907 25.391-1.424 4.931-4.572 9.475-9.052 12.082-4.663 2.714-10.561 3.268-15.615 1.341-4.544-1.733-8.418-5.448-9.851-10.154-1.47-4.826-0.243-10.416 3.327-14.027 3.452-3.492 8.998-4.743 13.484-2.567 4.259 2.065 6.884 7.148 5.307 11.755-0.85 2.483-2.859 4.611-5.423 5.317-2.69 0.741-5.774-0.221-7.439-2.493-1.629-2.222-1.495-5.503 0.597-7.389 1.054-0.95 2.599-1.429 3.984-1.015 0.41 0.122 2.233 0.566 2.058 1.209 0.087-0.652-1.341-0.82-1.755-0.934-1.29-0.356-2.733 0.004-3.719 0.904-1.739 1.586-1.995 4.459-0.597 6.34 1.417 1.906 4.102 2.721 6.348 1.971 2.287-0.765 3.875-3.013 4.245-5.344 0.746-4.703-3.812-8.759-8.323-8.569-4.774 0.201-8.548 4.373-9.111 8.971-1.056 8.621 8.8 14.488 16.466 12.536 8.546-2.177 12.86-12.372 10.766-20.465-2.34-9.045-11.891-14.664-20.877-14.543-9.785 0.131-18.28 7.23-21.955 16.011-4.038 9.649-2.194 21.17 4.201 29.364 6.485 8.309 16.93 13.113 27.352 13.664 5.766 0.305 11.749-0.537 17.004-3.006 4.955-2.328 8.907-6.258 11.976-10.734 6.303-9.194 8.662-20.938 6.135-31.824C79.845 17.355 61.052 3.689 41.936 5.329 23.164 6.939 7.154 22.991 5.551 41.756c-0.918 10.74 2.777 21.76 9.928 29.817 7.078 7.976 17.424 12.875 28.071 13.353 6.118 0.275 12.303-0.876 17.903-3.359-2.472 0.844-4.993 1.695-7.622 1.838 0.506-0.028 0.982-0.246 1.492-0.242-1.79-0.014-3.465 0.776-5.242 0.87 1.034-0.055 2.103-0.271 3.095-0.566 0.337-0.101 1.458-0.578 1.755-0.242-0.207-0.235-1.358 0.182-1.613 0.243-0.926 0.221-1.953 0.452-2.902 0.51 0.426-0.026 4.536-0.711 4.53-0.755 0.008 0.065-4.022 0.607-4.613 0.769 0.714-0.196 1.505-0.245 2.235-0.367 0.292-0.048 2.164-0.591 2.374-0.402C54.91 83.194 54.661 83.264 54.624 83.27 43.928 85.055 57.114 82.88 54.624 83.27z" fill="#ffffff" data-fill-palette-color="accent"></path></svg></g></svg></g></svg></g></svg></g></svg></g><defs></defs></svg><rect width="395.52" height="247.2" fill="none" stroke="none" visibility="hidden"></rect></g></svg></g></svg>